PathFileType	4	(X/Y/Z)	C:/Users/Carlo/Dropbox/Carlos/SARAH/CongressoMarcha2025/WorkshopOpenSim/C3D/Caso01/Walking 01.c3d.trc
DataRate	CameraRate	NumFrames	NumMarkers	Units	OrigDataRate	OrigDataStartFrame	OrigNumFrames
100.000000	100.000000	4	85	mm	100.000000	0	375
Frame#	Time	PELO			PELA			PELL			PELP			LFEO			LFEA			LFEL			LFEP			LTIO			LTIA			LTIL			LTIP			LFOO			LFOA			LFOL			LFOP			LTOO			LTOA			LTOL			LTOP			RFEO			RFEA			RFEL			RFEP			RTIO			RTIA			RTIL			RTIP			RFOO			RFOA			RFOL			RFOP			RTOO			RTOA			RTOL			RTOP			LASI			RASI			RPSI			LTHI			LKNE			LTIB			LANK			LHEE			LTOE			RTHI			RKNE			RTIB			RANK			RHEE			RTOE			LPSI			LHipAngles			LKneeAngles			LAbsAnkleAngle			LAnkleAngles			RHipAngles			RKneeAngles			RAnkleAngles			RAbsAnkleAngle			LPelvisAngles			RPelvisAngles			LFootProgressAngles			RFootProgressAngles			LHipPower			LKneePower			LAnklePower			RHipPower			RKneePower			RAnklePower			LGroundReactionForce			LNormalisedGRF			LAnkleForce			RAnkleForce			RKneeForce			LKneeForce			RHipForce			LHipForce			LGroundReactionMoment			LAnkleMoment			RAnkleMoment			RKneeMoment			LKneeMoment			RHipMoment			LHipMoment			
		X1	Y1	Z1	X2	Y2	Z2	X3	Y3	Z3	X4	Y4	Z4	X5	Y5	Z5	X6	Y6	Z6	X7	Y7	Z7	X8	Y8	Z8	X9	Y9	Z9	X10	Y10	Z10	X11	Y11	Z11	X12	Y12	Z12	X13	Y13	Z13	X14	Y14	Z14	X15	Y15	Z15	X16	Y16	Z16	X17	Y17	Z17	X18	Y18	Z18	X19	Y19	Z19	X20	Y20	Z20	X21	Y21	Z21	X22	Y22	Z22	X23	Y23	Z23	X24	Y24	Z24	X25	Y25	Z25	X26	Y26	Z26	X27	Y27	Z27	X28	Y28	Z28	X29	Y29	Z29	X30	Y30	Z30	X31	Y31	Z31	X32	Y32	Z32	X33	Y33	Z33	X34	Y34	Z34	X35	Y35	Z35	X36	Y36	Z36	X37	Y37	Z37	X38	Y38	Z38	X39	Y39	Z39	X40	Y40	Z40	X41	Y41	Z41	X42	Y42	Z42	X43	Y43	Z43	X44	Y44	Z44	X45	Y45	Z45	X46	Y46	Z46	X47	Y47	Z47	X48	Y48	Z48	X49	Y49	Z49	X50	Y50	Z50	X51	Y51	Z51	X52	Y52	Z52	X53	Y53	Z53	X54	Y54	Z54	X55	Y55	Z55	X56	Y56	Z56	X57	Y57	Z57	X58	Y58	Z58	X59	Y59	Z59	X60	Y60	Z60	X61	Y61	Z61	X62	Y62	Z62	X63	Y63	Z63	X64	Y64	Z64	X65	Y65	Z65	X66	Y66	Z66	X67	Y67	Z67	X68	Y68	Z68	X69	Y69	Z69	X70	Y70	Z70	X71	Y71	Z71	X72	Y72	Z72	X73	Y73	Z73	X74	Y74	Z74	X75	Y75	Z75	X76	Y76	Z76	X77	Y77	Z77	X78	Y78	Z78	X79	Y79	Z79	X80	Y80	Z80	X81	Y81	Z81	X82	Y82	Z82	X83	Y83	Z83	X84	Y84	Z84	X85	Y85	Z85	

1	0	143.3189697265626	931.454711914063	-3033.658935546876	155.2966308593751	925.9750976562505	-2905.407226562501	271.6096191406251	927.4685058593755	-3045.810546875001	147.8007965087891	1060.202880859375	-3028.576660156251	191.3934173583985	519.910583496094	-3135.950439453127	248.1768951416017	422.3324890136721	-2730.329833984376	608.2759399414065	517.4066162109377	-3194.912841796877	207.4705657958986	929.4788208007817	-3039.673339843751	164.2854003906251	98.99775695800787	-3277.346679687502	249.135223388672	-38.33750915527345	-2884.789794921876	579.3673095703127	102.0459594726563	-3365.998779296877	190.1502990722657	500.6085205078127	-3142.434570312502	184.7644500732422	74.84147644042972	-3124.678466796877	193.3201293945314	292.0473022460939	-3111.675537109377	402.1428833007815	66.8896179199219	-3134.878417968752	175.0653533935547	88.22218322753909	-3341.813232421877	187.9975128173829	70.38127136230472	-3052.300048828126	190.8495330810547	142.7832031250001	-3047.965820312501	260.4569702148439	67.73052215576175	-3055.700195312501	184.7643585205079	74.84146118164065	-3124.678466796877	52.90838623046878	563.5131835937502	-2819.040771484376	123.6448287963868	765.7866210937502	-2451.446044921876	471.6577148437502	506.1477966308596	-2868.054931640626	79.16725158691409	933.430541992188	-3027.645263671876	30.24861335754396	120.8616409301758	-2837.949462890626	-5.401407241821291	104.667579650879	-2416.128662109376	451.8252563476565	97.79654693603521	-2803.205566406251	51.886833190918	543.5573730468752	-2819.893066406251	4.662436485290529	108.3594512939454	-2684.990722656251	17.48150253295899	325.2813720703126	-2685.209716796876	221.0637207031251	95.58635711669925	-2669.929687500001	19.68439102172852	107.2529067993165	-2901.768554687501	-0.3449010848999025	108.7282409667969	-2612.731201171876	3.928176879882814	181.0355224609376	-2612.804199218751	71.78884124755862	104.4704895019532	-2607.710937500001	4.662355422973635	108.3593978881837	-2684.990478515626	259.3801574707032	1023.012390136719	-2993.201416015626	42.7642059326172	1029.743041992188	-2972.683837890626	76.22881317138675	1036.38671875	-3170.495361328127	303.7986755371095	722.6221313476565	-3102.920654296877	248.8208312988282	519.565612792969	-3144.072509765627	244.1421966552736	289.7020263671876	-3227.889648437502	208.7807159423829	99.32450866699224	-3286.849609375002	167.6732482910157	62.11726379394534	-3359.540039062502	173.3510131835938	54.98956298828128	-3133.728759765627	-44.42449951171876	822.040161132813	-2942.568359375001	-3.188236236572267	571.197937011719	-2812.474609375001	-27.79053306579591	411.5329284667971	-2831.695556640626	-16.0255298614502	123.3933639526368	-2841.763183593751	37.56653594970705	81.06993103027347	-2904.328613281251	12.38875198364259	88.45711517333987	-2682.423339843751	nan	nan	nan	-0.7810822725296025	-2.898704051971436	-10.93467235565186	0.5842229723930361	-4.033581733703615	5.459912300109865	0	0	15.15948677062989	-1.924063920974732	9.505562782287601	15.37572574615479	-4.630978584289553	3.986870288848879	31.37366104125978	5.115515708923342	-11.13581085205078	31.448055267334	0.2447875440120698	0.7302715778350832	2.52601456642151	0	0	2.525850772857667	-1.992158770561219	-5.333838462829592	2.260576725006104	1.992158770561219	5.333838462829592	2.260576725006104	2.25395154953003	-2.552819252014161	-86.47368621826175	-3.390078306198122	-3.964027166366579	-90.29242706298831	nan	nan	nan	nan	nan	nan	nan	nan	nan	nan	nan	nan	nan	nan	nan	nan	nan	nan	nan	nan	nan	nan	nan	nan	nan	nan	nan	nan	nan	nan	nan	nan	nan	nan	nan	nan	nan	nan	nan	nan	nan	nan	nan	nan	nan	nan	nan	nan	nan	nan	nan	nan	nan	nan	nan	nan	nan	nan	nan	nan	nan	nan	nan	
2	0.01	143.0312500000001	929.5566406250005	-3025.477783203126	155.4571380615235	923.9480590820317	-2897.274169921876	271.2727661132814	925.4183959960942	-3038.088378906251	147.6948852539063	1058.294555664063	-3020.297851562501	191.1015167236329	518.9822387695315	-3132.254394531252	250.0029449462892	417.1842956542971	-2727.998291015626	607.668640136719	517.6292114257815	-3193.290283203127	207.1585845947267	927.504760742188	-3031.721679687501	163.7420501708985	99.29553222656256	-3277.014160156252	249.1587829589845	-41.2207489013672	-2885.774169921876	578.6298828125002	103.029411315918	-3366.252685546877	189.8466796875001	499.7336730957034	-3138.893554687502	184.6992950439454	74.70201110839847	-3124.480712890627	192.9786376953126	291.8792724609376	-3110.837158203127	402.0585021972659	67.09764099121097	-3135.335449218752	174.3501739501954	88.73285675048831	-3341.544433593752	188.1490020751954	70.02503204345706	-3052.126220703126	190.9087219238282	142.4174499511719	-3047.578369140626	260.6020507812501	67.49030303955081	-3055.744384765626	184.6993560791016	74.70201110839847	-3124.480712890627	52.68463516235354	560.8990478515627	-2811.856445312501	121.5474090576172	762.213562011719	-2443.279296875001	471.8375244140627	504.6360473632815	-2859.437988281251	78.9039001464844	931.608764648438	-3019.234375000001	30.54080772399904	119.7541275024415	-2814.853515625001	-10.79223060607911	118.9779357910157	-2395.174316406251	449.6879577636721	98.43434143066412	-2773.612304687501	51.681999206543	540.9246215820315	-2811.992431640626	4.698962211608888	112.182113647461	-2661.614501953126	16.8085117340088	329.0220947265626	-2668.914062500001	221.1112670898439	100.6306228637696	-2645.746582031251	20.1451587677002	104.0280075073243	-2878.211669921876	-0.4497348964214327	114.9001617431641	-2589.415039062501	3.586766481399538	187.1801300048829	-2591.848144531251	71.68768310546878	111.049674987793	-2584.125732421876	4.699008464813234	112.1821746826172	-2661.614257812501	259.3682556152345	1020.930603027344	-2985.353515625001	42.80211257934572	1027.919067382813	-2964.057861328126	75.76980590820315	1034.693237304688	-3162.099609375002	303.7120666503907	721.450378417969	-3097.677246093752	248.4884796142579	518.7957763671877	-3140.662597656252	243.7553863525392	289.6945800781251	-3226.099853515627	208.2229919433595	99.69585418701178	-3286.581542968752	167.1321868896485	62.63005065917972	-3359.288330078127	173.2904052734376	54.85175704956058	-3133.528076171877	-44.51289749145509	819.3876953125005	-2934.881591796876	-3.454504013061525	568.4345703125002	-2805.483642578126	-27.86972427368165	409.2648010253909	-2820.070556640626	-15.67654991149903	122.1049499511719	-2819.400878906251	38.02568817138673	78.02191162109378	-2880.271484375001	12.62060642242432	92.60528564453128	-2659.554443359376	nan	nan	nan	-0.9491521120071416	-3.038713693618776	-11.47491455078125	0.6099907755851748	-3.816506862640383	5.33425807952881	0	0	15.45839309692384	-1.903544068336488	9.422020912170414	15.67514038085938	-4.64506769180298	3.511976003646852	31.21215438842775	4.785026073455812	-12.02161407470704	29.21700096130373	0.09487269818782812	1.428660035133362	2.331946849822999	0	0	2.331189393997193	-2.073012828826905	-5.534281253814699	2.304124355316163	2.073012828826905	5.534281253814699	2.304124355316163	2.181384086608888	-2.723994255065919	-86.30157470703128	-3.202725172042848	-4.076119899749758	-92.1559753417969	nan	nan	nan	nan	nan	nan	nan	nan	nan	nan	nan	nan	nan	nan	nan	nan	nan	nan	nan	nan	nan	nan	nan	nan	nan	nan	nan	nan	nan	nan	nan	nan	nan	nan	nan	nan	nan	nan	nan	nan	nan	nan	nan	nan	nan	nan	nan	nan	nan	nan	nan	nan	nan	nan	nan	nan	nan	nan	nan	nan	nan	nan	nan	
3	0.02	142.652816772461	927.0117797851567	-3014.585449218751	155.7189636230469	921.258178710938	-2886.451904296876	270.8223571777345	922.6892089843755	-3027.849365234376	147.5407257080079	1055.7373046875	-3009.303710937501	190.7475738525391	517.7348632812502	-3127.197021484377	252.3617401123048	410.4942321777346	-2724.753417968751	606.9270019531252	517.962341308594	-3190.853515625002	206.7444915771486	924.867553710938	-3021.156005859376	163.0818939208985	99.74767303466803	-3276.524414062502	249.4538726806642	-45.07567596435548	-2887.146728515626	577.680358886719	104.5266647338868	-3366.713378906252	189.4784851074219	498.561218261719	-3134.046875000002	184.6228637695313	74.50406646728518	-3124.178466796877	192.5375213623048	291.6328125000001	-3109.579589843752	401.9565124511721	67.36541748046878	-3135.831054687502	173.4827728271485	89.49766540527347	-3341.138671875002	188.3362426757813	69.50621032714847	-3051.858154296876	190.9745330810547	141.8824462890626	-3046.991943359376	260.7807617187501	67.12658691406253	-3055.742431640626	184.6228332519532	74.50405883789065	-3124.178222656252	52.40648269653323	557.4360961914065	-2802.238525390626	118.4468231201172	757.5402832031252	-2432.372558593751	472.1187133789065	502.7864074707034	-2847.612548828126	78.56115722656253	929.155883789063	-3008.015625000001	30.95211791992189	118.646842956543	-2784.925048828126	-17.51513290405274	137.4475555419922	-2368.502929687501	447.2950744628909	100.2348022460938	-2735.635742187501	51.4305114746094	537.4754028320315	-2801.450927734376	4.783024787902834	117.5371398925782	-2631.558105468751	15.95574474334718	333.9168701171876	-2648.125732421876	221.2061157226564	107.6498260498047	-2614.740966796876	20.77500152587891	100.1716918945313	-2847.572265625001	-0.5475921034812929	123.3256759643555	-2559.553466796876	3.17664957046509	195.4522705078126	-2565.076171875001	71.59344482421878	120.0299148559571	-2553.947753906251	4.78307628631592	117.5370712280274	-2631.558349609376	259.3406372070314	1018.167297363282	-2974.962646484376	42.8787078857422	1025.467529296875	-2952.561767578126	75.09915161132815	1032.383178710938	-3150.921875000002	303.6056213378907	719.8967895507815	-3090.604492187502	248.0807647705079	517.7661743164065	-3135.966064453127	243.2537078857423	289.6846618652345	-3223.663574218752	207.5392913818361	100.2601165771485	-3286.195068359377	166.4733886718751	63.4106254577637	-3358.956787109377	173.2213287353516	54.66690826416018	-3133.255615234377	-44.69311523437501	815.7705688476567	-2924.664550781251	-3.79437041282654	564.753845214844	-2796.162597656251	-27.95571708679201	406.3484497070315	-2804.770263671876	-15.18094921112061	120.686996459961	-2790.386230468751	38.6886329650879	74.33653259277347	-2848.989990234376	12.94549369812012	98.28302001953131	-2630.016845703126	nan	nan	nan	-1.178117156028748	-3.192923307418825	-12.18432331085206	0.6436345577239992	-3.571139335632326	5.202033519744875	0	0	15.8433542251587	-1.887162923812867	9.355298042297367	16.06267166137696	-4.676883697509767	2.822599887847901	30.99026489257814	4.348203182220461	-13.06443977355958	26.34574127197267	-0.09361126273870471	2.30608367919922	2.123279809951783	0	0	2.121539115905763	-2.172735452651978	-5.820821285247805	2.3496413230896	2.172735452651978	5.820821285247805	2.3496413230896	2.08562994003296	-2.932366132736207	-86.0467224121094	-2.955272436141969	-4.220398902893068	-94.5961837768555	nan	nan	nan	nan	nan	nan	nan	nan	nan	nan	nan	nan	nan	nan	nan	nan	nan	nan	nan	nan	nan	nan	nan	nan	nan	nan	nan	nan	nan	nan	nan	nan	nan	nan	nan	nan	nan	nan	nan	nan	nan	nan	nan	nan	nan	nan	nan	nan	nan	nan	nan	nan	nan	nan	nan	nan	nan	nan	nan	nan	nan	nan	nan	
4	0.03	142.1950225830079	923.8605346679692	-3001.178222656251	156.1007385253907	917.9641723632817	-2873.139648437501	270.2662353515626	919.3348999023442	-3015.295898437501	147.3351593017579	1052.572509765625	-2995.809082031251	190.3602600097657	516.1860961914065	-3120.791015625002	255.1845092773439	402.4792480468752	-2720.572021484376	606.1156005859377	518.431823730469	-3187.493652343752	206.2379913330079	921.6147460937505	-3008.175781250001	162.3543853759766	100.3830108642579	-3275.862060546877	250.1215820312501	-49.83787536621097	-2888.914794921876	576.5770263671877	106.6200180053712	-3367.394531250002	189.075424194336	497.110046386719	-3127.905273437502	184.5425720214844	74.2431335449219	-3123.760253906252	192.0123901367189	291.2947387695314	-3107.840576171877	401.845397949219	67.68399047851565	-3136.294433593752	172.5288543701172	90.55912780761722	-3340.578369140627	188.5471191406251	68.80447387695315	-3051.487548828126	191.0371856689454	141.1549987792969	-3046.181152343751	260.9813842773439	66.61796569824222	-3055.665771484376	184.5424346923829	74.24306488037112	-3123.760253906252	52.093132019043	553.2143554687502	-2790.319824218751	114.3122329711915	751.9102172851565	-2418.923095703126	472.4936218261721	500.6934509277346	-2832.649902343751	78.15199279785159	926.1062011718755	-2994.181152343751	31.48877906799318	117.7329559326172	-2749.236083984376	-25.13315391540529	159.2765655517579	-2337.279052734376	445.068054199219	103.6615600585938	-2690.972167968751	51.1520919799805	533.3249511718752	-2788.443603515626	4.948685169219972	124.4009475708008	-2596.074462890626	14.99207878112794	339.6946105957032	-2623.773925781251	221.3799438476564	116.5916137695313	-2578.297851562501	21.56570625305176	95.99067687988284	-2810.867919921876	-0.5903572440147402	133.8710021972657	-2524.476806640626	2.757258653640748	205.6355438232423	-2533.709960937501	71.55340576171878	131.2680816650391	-2518.551025390626	4.948837757110597	124.4010238647462	-2596.074462890626	259.2929687500001	1014.782409667969	-2962.244873046876	43.00453948974611	1022.425354003907	-2938.402832031251	74.19653320312503	1029.47119140625	-3137.164306640627	303.4855041503907	717.995056152344	-3081.777587890627	247.6270904541017	516.4954223632815	-3129.978515625002	242.6593475341798	289.6804199218751	-3220.587402343752	206.7777862548829	101.0519027709962	-3285.678222656252	165.7454528808594	64.50708007812503	-3358.550537109377	173.1520996093751	54.43511199951175	-3132.913330078127	-44.99607086181642	811.2324829101567	-2912.093505859376	-4.18697500228882	560.2454833984377	-2784.653076171876	-28.03304481506349	402.8967590332034	-2786.174316406251	-14.53044128417969	119.298683166504	-2755.719238281251	39.56889724731447	70.26600646972659	-2811.537353515626	13.37252807617188	105.407211303711	-2594.895996093751	nan	nan	nan	-1.468436717987061	-3.345003843307497	-13.04454994201661	0.6835552453994753	-3.318966388702394	5.086177825927736	0	0	16.29832458496094	-1.879920363426209	9.325791358947757	16.52283287048341	-4.731339931488039	1.912763357162476	30.71007347106935	3.835129976272585	-14.15789699554444	22.95450019836426	-0.3094637989997865	3.309529066085817	1.933522820472718	0	0	1.930322885513307	-2.284921646118165	-6.196763992309574	2.388755321502686	2.284921646118165	6.196763992309574	2.388755321502686	1.968764424324037	-3.162533283233644	-85.69648742675784	-2.656853199005128	-4.385731697082521	-97.5346298217774	nan	nan	nan	nan	nan	nan	nan	nan	nan	nan	nan	nan	nan	nan	nan	nan	nan	nan	nan	nan	nan	nan	nan	nan	nan	nan	nan	nan	nan	nan	nan	nan	nan	nan	nan	nan	nan	nan	nan	nan	nan	nan	nan	nan	nan	nan	nan	nan	nan	nan	nan	nan	nan	nan	nan	nan	nan	nan	nan	nan	nan	nan	nan	
